<?xml version="1.0" encoding="utf-8"?>
<!-- Generator: Adobe Illustrator 26.0.0, SVG Export Plug-In . SVG Version: 6.00 Build 0)  -->
<svg version="1.1" id="Layer_1" xmlns="http://www.w3.org/2000/svg" xmlns:xlink="http://www.w3.org/1999/xlink" x="0px" y="0px"
	 viewBox="0 0 60 60" style="enable-background:new 0 0 60 60;" xml:space="preserve">
<style type="text/css">
	.st0{fill-rule:evenodd;clip-rule:evenodd;fill:#082C4E;}
	.st1{fill:#082C4E;}
</style>
<path class="st0" d="M30,1.4C30,0.6,30.6,0,31.4,0C47.2,0,60,13.4,60,30S47.2,60,31.4,60c-0.8,0-1.4-0.6-1.4-1.4
	c0-0.8,0.6-1.4,1.4-1.4C45.7,57.1,57.3,45,57.3,30S45.7,2.9,31.4,2.9C30.6,2.9,30,2.2,30,1.4z"/>
<path class="st1" d="M37.9,29.5c-0.1-0.2-0.2-0.3-0.3-0.4l-6.3-6.7c-0.3-0.3-0.8-0.5-1.2-0.3c-0.4,0.1-0.8,0.5-0.9,0.9
	c-0.1,0.5,0,1,0.3,1.3l4.2,4.4H23.3c-0.7,0-1.3,0.6-1.3,1.3s0.6,1.3,1.3,1.3h10.4l-4.2,4.4c-0.2,0.3-0.4,0.6-0.4,0.9
	c0,0.4,0.1,0.7,0.4,0.9c0.2,0.3,0.6,0.4,0.9,0.4s0.7-0.1,0.9-0.4l6.3-6.7c0.1-0.1,0.2-0.3,0.3-0.4C38,30.2,38,29.8,37.9,29.5z"/>
</svg>
