<?xml version="1.0" encoding="utf-8"?>
<!-- Generator: Adobe Illustrator 26.0.0, SVG Export Plug-In . SVG Version: 6.00 Build 0)  -->
<svg version="1.1" id="Layer_1" xmlns="http://www.w3.org/2000/svg" xmlns:xlink="http://www.w3.org/1999/xlink" x="0px" y="0px"
	 viewBox="0 0 44 44" style="enable-background:new 0 0 44 44;" xml:space="preserve">
<style type="text/css">
	.st0{fill:#F2EAE2;}
	.st1{fill:none;stroke:#082C4E;stroke-width:1.5;stroke-linecap:round;stroke-linejoin:round;stroke-miterlimit:10;}
</style>
<circle class="st0" cx="22" cy="22" r="21.3"/>
<path class="st1" d="M31,28.7c0,0-6.5,5.6-14.9,2.7"/>
<path class="st1" d="M19.8,18.5l-3.3,7.1l3.7,1.4"/>
<path class="st1" d="M15.5,21.9c2.9-0.4,5-3,4.6-5.9s-3-5-5.9-4.6c-2.9,0.4-5,3-4.6,5.9C10,20.1,12.6,22.2,15.5,21.9z"/>
<path class="st1" d="M28.8,21.7c2.9-0.4,5-3,4.6-5.9c-0.4-2.9-3-5-5.9-4.6c-2.9,0.4-5,3-4.6,5.9C23.3,20,25.9,22.1,28.8,21.7z"/>
<path class="st1" d="M20.6,16.9l2.3-0.1"/>
</svg>
