<svg id="Layer_1" data-name="Layer 1" xmlns="http://www.w3.org/2000/svg" viewBox="0 0 1440 700"><defs><style>.cls-1{fill:none;}.cls-2{fill:#fe6571;}.cls-3{fill:#f2eae2;}.cls-4{fill:#082c4e;}.cls-5{fill:#fc0;}</style></defs><rect class="cls-1" width="1440" height="700"/><path class="cls-2" d="M1061.75,551.74h148a74,74,0,0,0-148,0Z"/><path class="cls-3" d="M1358.89,626h-148a74,74,0,0,0,148,0Z"/><path class="cls-3" d="M763.39,699.5h148a74,74,0,0,0-148,0Z"/><path class="cls-4" d="M1358.89,551.73l-42.29,0v0a31.71,31.71,0,1,1-63.42,0v0h-42.29v0a74,74,0,1,0,148,0Z"/><path class="cls-4" d="M1135.75,552.21a74,74,0,1,1-74,74A74,74,0,0,1,1135.75,552.21Z"/><path class="cls-4" d="M1135.75,552.21a74,74,0,1,1-74,74A74,74,0,0,1,1135.75,552.21Z"/><path class="cls-2" d="M913.19,700l42.29,0v0a31.71,31.71,0,1,1,63.42,0v0h42.29v0a74,74,0,1,0-148,0Z"/><path class="cls-5" d="M1061.19,551.56l-42.29,0v0a31.71,31.71,0,1,1-63.42,0v0H913.19v0a74,74,0,1,0,148,0Z"/><path class="cls-4" d="M1284.89,402.06a74,74,0,1,1-74,74A74,74,0,0,1,1284.89,402.06Z"/><path class="cls-3" d="M719,680.47a20.86,20.86,0,1,1,8.83-28.15A20.88,20.88,0,0,1,719,680.47Z"/><path class="cls-3" d="M719,680.47a20.86,20.86,0,1,1,8.83-28.15A20.88,20.88,0,0,1,719,680.47Z"/><path class="cls-5" d="M1246.93,254.63a74,74,0,1,1-59,86.47A74,74,0,0,1,1246.93,254.63Z"/><path class="cls-5" d="M1246.93,254.63a74,74,0,1,1-59,86.47A74,74,0,0,1,1246.93,254.63Z"/></svg>