<?xml version="1.0" encoding="utf-8"?>
<!-- Generator: Adobe Illustrator 26.0.0, SVG Export Plug-In . SVG Version: 6.00 Build 0)  -->
<svg version="1.1" id="Layer_1" xmlns="http://www.w3.org/2000/svg" xmlns:xlink="http://www.w3.org/1999/xlink" x="0px" y="0px"
	 viewBox="0 0 1440 700" style="enable-background:new 0 0 1440 700;" xml:space="preserve">
<style type="text/css">
	.st0{clip-path:url(#SVGID_00000016067482274250325580000016911900558568785318_);}
	.st1{fill:#FE6571;}
	.st2{fill:#F2EAE2;}
	.st3{fill:#082C4E;}
	.st4{display:none;}
	.st5{display:inline;}
	.st6{fill-opacity:0;stroke:#F2EAE2;stroke-width:38;}
	.st7{fill:#FFCC00;}
	.st8{fill-opacity:0;stroke:#082C4E;stroke-width:41;stroke-linejoin:round;}
	.st9{fill-opacity:0;stroke:#FFCC00;stroke-width:41;stroke-linejoin:round;}
	.st10{fill-opacity:0;stroke:#FFCC00;stroke-width:4;}
</style>
<g>
	<defs>
		<rect id="SVGID_1_" width="1440" height="700"/>
	</defs>
	<clipPath id="SVGID_00000083810149653523100770000014267418333740750509_">
		<use xlink:href="#SVGID_1_"  style="overflow:visible;"/>
	</clipPath>
	<g style="clip-path:url(#SVGID_00000083810149653523100770000014267418333740750509_);">
		<g transform="matrix(0,1,-1,0,1209.9959716796875,477.489990234375)">
			<g transform="matrix(1,0,0,1,37.25,74.25)">
				<path class="st1" d="M37,74V-74C-3.8-74-37-40.8-37,0S-3.8,74,37,74z"/>
			</g>
		</g>
		<g transform="matrix(0,-1,1,0,1210.6429443359375,700.25)">
			<g transform="matrix(1,0,0,1,37.25,74.25)">
				<path class="st2" d="M37,74V-74C-3.8-74-37-40.8-37,0S-3.8,74,37,74z"/>
			</g>
		</g>
		<g transform="matrix(0,1,-1,0,911.6430053710938,625.25)">
			<g transform="matrix(1,0,0,1,37.25,74.25)">
				<path class="st2" d="M37,74V-74C-3.8-74-37-40.8-37,0S-3.8,74,37,74z"/>
			</g>
		</g>
		<g transform="matrix(0,-1,1,0,1210.6429443359375,626.0859985351562)">
			<g transform="matrix(1,0,0,1,37.25,74.25)">
				<path class="st3" d="M37.1,74l0-42.3h0C19.6,31.7,5.3,17.5,5.3,0s14.2-31.7,31.8-31.7h0V-74h0C-3.8-74-37-40.8-37,0
					S-3.8,74,37.1,74z"/>
			</g>
		</g>
		
			<g transform="matrix(-0.9985197186470032,0.054391101002693176,-0.054391101002693176,-0.9985197186470032,113.3475341796875,949.9263305664062)" class="st4">
			<g transform="matrix(1,0,0,1,-474,171.48699951171875)" class="st5">
				<path class="st6" d="M0-55c30.4,0,55,24.6,55,55S30.4,55,0,55S-55,30.4-55,0S-30.4-55,0-55z"/>
			</g>
		</g>
		<g transform="matrix(1,0,0,1,1609.7459716796875,454.718017578125)">
			<g transform="matrix(1,0,0,1,-474,171.48699951171875)">
				<path class="st3" d="M0-74c40.8,0,74,33.2,74,74S40.8,74,0,74S-74,40.8-74,0S-40.8-74,0-74z"/>
				<path class="st3" d="M0-74c40.8,0,74,33.2,74,74S40.8,74,0,74S-74,40.8-74,0S-40.8-74,0-74z"/>
			</g>
		</g>
		<g transform="matrix(0,1,-1,0,1061.4420166015625,625.6160278320312)">
			<g transform="matrix(1,0,0,1,37.25,74.25)">
				<path class="st1" d="M37.1,74l0-42.3h0C19.6,31.7,5.3,17.5,5.3,0s14.2-31.7,31.8-31.7h0V-74h0C-3.8-74-37-40.8-37,0
					S-3.8,74,37.1,74z"/>
			</g>
		</g>
		<g transform="matrix(0,-1,1,0,912.9420166015625,625.9149780273438)">
			<g transform="matrix(1,0,0,1,37.25,74.25)">
				<path class="st7" d="M37.1,74l0-42.3h0C19.6,31.7,5.3,17.5,5.3,0s14.2-31.7,31.8-31.7h0V-74h0C-3.8-74-37-40.8-37,0
					S-3.8,74,37.1,74z"/>
			</g>
		</g>
		
			<g transform="matrix(0.2043764591217041,-0.9788923859596252,0.9788923859596252,0.2043764591217041,-457.72222900390625,6609.3427734375)">
			<g transform="matrix(1,0,0,1,-481.5,171.48699951171875)">
				<path class="st8" d="M0-54c29.8,0,54,24.2,54,54S29.8,54,0,54S-54,29.8-54,0S-29.8-54,0-54z"/>
			</g>
		</g>
		<g transform="matrix(1,0,0,1,1758.89306640625,304.572998046875)">
			<g transform="matrix(1,0,0,1,-474,171.48699951171875)">
				<path class="st3" d="M0-74c40.8,0,74,33.2,74,74S40.8,74,0,74S-74,40.8-74,0S-40.8-74,0-74z"/>
			</g>
		</g>
		
			<g transform="matrix(-0.9645067453384399,-0.2640582323074341,0.2640582323074341,-0.9645067453384399,-1858.195068359375,20191.30859375)">
			<g transform="matrix(1,0,0,1,-474,171.48699951171875)">
				<path class="st3" d="M0-74c40.8,0,74,33.2,74,74c0,40.8-33.2,74-74,74c-40.8,0-74-33.2-74-74C-74-40.8-40.8-74,0-74z"/>
				<path class="st3" d="M0-74c40.8,0,74,33.2,74,74c0,40.8-33.2,74-74,74c-40.8,0-74-33.2-74-74C-74-40.8-40.8-74,0-74z"/>
			</g>
		</g>
		
			<g transform="matrix(-0.9645067453384399,-0.2640582323074341,0.2640582323074341,-0.9645067453384399,-1858.195068359375,20191.30859375)">
			<g transform="matrix(1,0,0,1,-474,171.48699951171875)">
				<path class="st1" d="M0-74c40.8,0,74,33.2,74,74c0,40.8-33.2,74-74,74c-40.8,0-74-33.2-74-74C-74-40.8-40.8-74,0-74z"/>
				<path class="st1" d="M0-74c40.8,0,74,33.2,74,74c0,40.8-33.2,74-74,74c-40.8,0-74-33.2-74-74C-74-40.8-40.8-74,0-74z"/>
			</g>
		</g>
		
			<g transform="matrix(-0.9645067453384399,-0.2640582323074341,0.2640582323074341,-0.9645067453384399,-1858.195068359375,20191.30859375)">
			<g transform="matrix(1,0,0,1,-474,171.48699951171875)">
				<path class="st7" d="M0-74c40.8,0,74,33.2,74,74c0,40.8-33.2,74-74,74c-40.8,0-74-33.2-74-74C-74-40.8-40.8-74,0-74z"/>
				<path class="st7" d="M0-74c40.8,0,74,33.2,74,74c0,40.8-33.2,74-74,74c-40.8,0-74-33.2-74-74C-74-40.8-40.8-74,0-74z"/>
			</g>
		</g>
		
			<g transform="matrix(0.17475487291812897,0.22119754552841187,-0.22119754552841187,0.17475487291812897,331.23699951171875,2662.77490234375)">
			<g transform="matrix(1,0,0,1,-474,171.48699951171875)">
				<path class="st1" d="M0-74c40.8,0,74,33.2,74,74c0,40.8-33.2,74-74,74c-40.8,0-74-33.2-74-74C-74-40.8-40.8-74,0-74z"/>
				<path class="st1" d="M0-74c40.8,0,74,33.2,74,74c0,40.8-33.2,74-74,74c-40.8,0-74-33.2-74-74C-74-40.8-40.8-74,0-74z"/>
			</g>
		</g>
		
			<g transform="matrix(-0.24984949827194214,0.13054825365543365,-0.13054825365543365,-0.24984949827194214,613.3192749023438,766.7049560546875)">
			<g transform="matrix(1,0,0,1,-474,171.48699951171875)">
				<path class="st2" d="M0-74c40.8,0,74,33.2,74,74c0,40.8-33.2,74-74,74c-40.8,0-74-33.2-74-74S-40.8-74,0-74z"/>
				<path class="st2" d="M0-74c40.8,0,74,33.2,74,74c0,40.8-33.2,74-74,74c-40.8,0-74-33.2-74-74S-40.8-74,0-74z"/>
			</g>
		</g>
		
			<g transform="matrix(0.10027210414409637,0.26346370577812195,-0.26346370577812195,0.10027210414409637,-1035.0245361328125,11198.1435546875)">
			<g transform="matrix(1,0,0,1,-474,171.48699951171875)">
				<path class="st7" d="M0-74c40.8,0,74,33.2,74,74S40.8,74,0,74S-74,40.8-74,0C-74-40.8-40.8-74,0-74z"/>
				<path class="st7" d="M0-74c40.8,0,74,33.2,74,74S40.8,74,0,74S-74,40.8-74,0C-74-40.8-40.8-74,0-74z"/>
			</g>
		</g>
		
			<g transform="matrix(-0.21183151006698608,-0.1859973818063736,0.1859973818063736,-0.21183151006698608,-351.6925048828125,3648.86181640625)">
			<g transform="matrix(1,0,0,1,-474,171.48699951171875)">
				<path class="st3" d="M0-74c40.8,0,74,33.2,74,74c0,40.8-33.2,74-74,74c-40.8,0-74-33.2-74-74C-74-40.8-40.8-74,0-74z"/>
				<path class="st3" d="M0-74c40.8,0,74,33.2,74,74c0,40.8-33.2,74-74,74c-40.8,0-74-33.2-74-74C-74-40.8-40.8-74,0-74z"/>
			</g>
		</g>
		
			<g transform="matrix(-0.1597389578819275,0.9871593117713928,-0.9871593117713928,-0.1597389578819275,586.8295288085938,1477.4454345703125)">
			<g transform="matrix(1,0,0,1,-481.5,171.48699951171875)">
				<path class="st9" d="M0-54c29.8,0,54,24.2,54,54c0,29.8-24.2,54-54,54c-29.8,0-54-24.2-54-54C-54-29.8-29.8-54,0-54z"/>
			</g>
		</g>
		
			<g transform="matrix(0.9825511574745178,-0.1859925240278244,0.1859925240278244,0.9825511574745178,1694.5262451171875,70.68331909179688)">
			<g transform="matrix(1,0,0,1,-474,171.48699951171875)">
				<path class="st7" d="M0-74c40.8,0,74,33.2,74,74c0,40.8-33.2,74-74,74c-40.8,0-74-33.2-74-74S-40.8-74,0-74z"/>
				<path class="st7" d="M0-74c40.8,0,74,33.2,74,74c0,40.8-33.2,74-74,74c-40.8,0-74-33.2-74-74S-40.8-74,0-74z"/>
			</g>
		</g>
		<g transform="matrix(1,0,0,1,796,336)">
			<g transform="matrix(1,0,0,1,0,0)">
				<path class="st2" d="M838-314H648v680H-92l-40,150h970V-314z"/>
				<path class="st10" d="M838-314H648v680H-92l-40,150h970V-314z"/>
			</g>
		</g>
	</g>
</g>
</svg>
