<svg id="Layer_1" data-name="Layer 1" xmlns="http://www.w3.org/2000/svg" xmlns:xlink="http://www.w3.org/1999/xlink" viewBox="0 0 544 520"><defs><style>.cls-1{fill:none;}.cls-2{clip-path:url(#clip-path);}.cls-3{clip-path:url(#clip-path-2);}.cls-4{fill:#072c4e;}.cls-12,.cls-13,.cls-14,.cls-15,.cls-17,.cls-5,.cls-6,.cls-7,.cls-9{fill-opacity:0;}.cls-12,.cls-17,.cls-5,.cls-9{stroke:#082c4e;stroke-linecap:round;}.cls-12,.cls-17,.cls-5,.cls-6,.cls-9{stroke-linejoin:round;}.cls-5{stroke-width:1.17px;}.cls-13,.cls-14,.cls-15,.cls-6{stroke:#092c4e;}.cls-6{stroke-width:28.7px;}.cls-7{stroke:#fc0;stroke-miterlimit:2.34;stroke-width:26.36px;}.cls-8{fill:#fc0;}.cls-9{stroke-width:1.17px;}.cls-10{fill:#2f97f3;}.cls-11{fill:#fff;}.cls-12{stroke-width:1.17px;}.cls-13{stroke-miterlimit:2.34;stroke-width:1.17px;}.cls-14{stroke-miterlimit:2.34;stroke-width:1.17px;}.cls-15{stroke-miterlimit:2.34;stroke-width:1.17px;}.cls-16{fill:#fd6470;}.cls-17{stroke-width:1.17px;}</style><clipPath id="clip-path"><rect class="cls-1" width="544" height="520"/></clipPath><clipPath id="clip-path-2"><rect class="cls-1" x="-82.7" y="41.9" width="665.4" height="452.19"/></clipPath></defs><g class="cls-2"><g class="cls-3"><path class="cls-4" d="M444.85,434.71h-18l2.36,6.32c-3.86,1.26-12.63,4.14-16.57,5.27-3.67,1.05-4.67,5.31-1.75,7.29a8.16,8.16,0,0,0,4.45,1.23l26.77-.1c3.72,0,6.18-1,6.68-4.15a5.09,5.09,0,0,0-.15-2.16Z"/><path class="cls-4" d="M343.77,434.84h-19l2.09,6.18C323,442.27,314,445.26,310,446.39c-3.67,1.06-4.68,5.31-1.75,7.29a8,8,0,0,0,4.45,1.14h29.05a6.43,6.43,0,0,0,5.92-8.56Z"/><path class="cls-5" d="M404.63,258.92s12.79,36.41,24.31,73.8c5.16,16.75,23,80.23,28.41,95.82a4.56,4.56,0,0,1-4.06,6H418a9.9,9.9,0,0,1-8.83-6.48c-24.8-78.51-39.14-153.36-39.14-153.36s-28.8,49.08-34.68,59.13a5.18,5.18,0,0,0-.58,3.79c2.61,11.12,15.44,65.52,23.16,91.6a4.07,4.07,0,0,1-3.77,5.26H320.8a6.86,6.86,0,0,1-6.18-4.61c-9-30-15.44-59.39-20.89-86.45-2.38-11.8-.08-18,9.38-31.82,10.78-15.78,36.9-57.89,39.83-60.82"/><path class="cls-4" d="M149.81,435H131.87l-.33,5.08c-3.85,1.26-14,4.54-17.94,5.68-3.67,1.05-4.68,5.3-1.75,7.28a8.41,8.41,0,0,0,4.56,1.14H142c4.19,0,6.78-1.27,6.77-5.46Z"/><path class="cls-4" d="M241.93,434.53h19l5,5.57c3.86,1.26,14,4.54,17.95,5.68,3.66,1.05,4.67,5.3,1.74,7.28a8,8,0,0,1-4.44,1.14H252.32c-4.2,0-6.43-1.79-7.23-5.15Z"/><path class="cls-5" d="M227.06,286.4c19.32,36.1,48.08,104.85,56.1,141.45.67,3.07-1.64,6.63-4.78,6.68H234.46c-2.49,0-5.19-3-5.56-5.5C222.76,388,181.08,288.4,175,268.1c0,0-6.79,126.92-7.25,157.82-.06,4.48-3.05,9.15-7.53,9.15H123.67a8.18,8.18,0,0,1-8.11-9.3c8.56-62.36,14.5-131.26,22.56-169.09"/><path class="cls-5" d="M202.46,254A123.23,123.23,0,0,0,213,269.27"/><path class="cls-5" d="M104.93,453.31c102.92,2.2,189.29,1.26,189.29,1.26"/><path class="cls-5" d="M311.5,453.87c14.53.31,26.5.44,38.68.59,74.11.94,105.85.1,105.85.1"/><path class="cls-6" d="M256.87,142.22s18.34,28.65,44.67,42.85c25.74,13.9,58.84,13.82,60.29,13.81"/><path class="cls-7" d="M256.87,142.22s18.34,28.65,44.67,42.85c25.74,13.9,58.84,13.82,60.29,13.81"/><path class="cls-8" d="M265.22,132.54l-21.79,15.9,3.1,2.43,21.55-13.1Z"/><path class="cls-9" d="M254,142.82c-3.16-.8-6.32-7.41-7.16-10.3-.65-2.22-.09-3.88,1.89-4.69,2.85-1.16,6.46,2.25,7,3"/><path class="cls-9" d="M253.88,134.32a30.38,30.38,0,0,1,2.57,4.55"/><path class="cls-9" d="M246.07,131.23c-3.44-.84-4.14,2.23-4,3.89.42,4.25,4,9.78,6.19,11.83a2.66,2.66,0,0,0,2.58.55,1.84,1.84,0,0,0,1.25-2.14"/><path class="cls-9" d="M241.8,134.41c-2.78-.17-3.57,2.79-3.19,5.13.64,4,3.73,7.39,5.57,8.79.89.68,3.38,1.39,4.28-.85"/><path class="cls-9" d="M269.26,135.82s-2.41-2.06-8-10.75c-3-4.54-4.56-7.21-6.13-8.83-2-2-3.76-2.75-4.81-1.68s-.08,5.31,1.27,8.25a152.12,152.12,0,0,0,10.09,17.36"/><path class="cls-9" d="M269,143.74c-2.61-2.23-11.52-4.87-13.62-4.87-2.63,0-2.62,2.8-.73,4.51a19.22,19.22,0,0,0,6.92,3.49c1,.08-4.48,1.3-5.15,4.87"/><path class="cls-6" d="M442.18,309s21.13-32,8.18-64c-12.67-31.29-48.81-39.91-50.36-40.27"/><path class="cls-7" d="M442.18,309s21.13-32,8.18-64c-12.67-31.29-48.81-39.91-50.36-40.27"/><path class="cls-10" d="M398.14,260.08l-49.7-7.76a5.07,5.07,0,0,1-4.23-5.79l8.06-51.59a15,15,0,0,1,17.07-12.46l30.19,4.72A15,15,0,0,1,412,204.27l-8.06,51.58A5.07,5.07,0,0,1,398.14,260.08Z"/><path class="cls-11" d="M421.92,400.59l-78.6-33.1L386.89,264l78.6,33.1Z"/><path class="cls-12" d="M365.49,352.82q18.86-25.49,37.81-50.91a6.7,6.7,0,0,1,3.14-2.76,6.83,6.83,0,0,1,4.26.59L424.93,305"/><path class="cls-12" d="M366.68,355.15c2.74.73,11.54,4.35,11.54,4.35s16.3-21,16.81-21.14c.28-.06,11.35,4.17,11.23,4.61-2.45,8.82-4.05,17.9-5.78,24-.1.36,14.25,6.38,14.49,6.27.44-.2.77-1.66.87-2.13,1.62-8.13,8.68-46.76,8.8-52.91"/><path class="cls-12" d="M400.84,328.16s6.46,2.79,8.2,3.43c.38.14,3.16-19.78,3.16-19.78Z"/><path class="cls-12" d="M430.37,301.3c-2.67,4.4-10.52,12.56-8.09,14.39,2.9,2.18,8.46-4.64,10.9-8.08"/><path class="cls-12" d="M428.83,323c0,2.31,2.94,1.75,4.56.78,4.28-2.58,7.14-7.45,9.18-11"/><path class="cls-12" d="M434.06,305.74c-1.53,3-1.87,4.66-5.69,9.84-2.06,2.79-5.07,6.53-3.12,7.59,3.95,2.14,10.28-7.3,13.12-12.7"/><path class="cls-12" d="M433.8,325.27c.38.6,1.56,1.42,3.43.61a16.53,16.53,0,0,0,7.86-6.68"/><path class="cls-13" d="M430.32,301.18a47.38,47.38,0,0,0,8.29-19.92"/><path class="cls-13" d="M463.31,294.82s-2.17,9.48-6.16,16.14"/><path class="cls-14" d="M344.17,211.66s3.47.81,14.9-.49"/><path class="cls-14" d="M350.56,184.58s3.74.45,14.05,0"/><path class="cls-15" d="M410.62,223.47s-3.55-2.47-11.77-3.81"/><path class="cls-15" d="M415.94,195.59a47.17,47.17,0,0,0-14.35-4"/><path class="cls-5" d="M383,167.92a10.61,10.61,0,0,1-10.06.57"/><path class="cls-5" d="M376.46,160.3l-2.75,4.41,2.37,1.27"/><path class="cls-5" d="M376.23,159.63a3.52,3.52,0,1,1-3.28-3.74A3.52,3.52,0,0,1,376.23,159.63Z"/><path class="cls-5" d="M385,160.62a3.52,3.52,0,1,1-3.27-3.75A3.51,3.51,0,0,1,385,160.62Z"/><path class="cls-10" d="M376.48,160.05l1.49.1"/><path class="cls-5" d="M376.48,160.05l1.49.1"/><path class="cls-16" d="M388.86,147.82a10.91,10.91,0,0,0-19.59,5.86l14.2,1c1.33,2.71,4,3.66,6.22,4.1s3.35,1.64,3.61,3.08c.07.36.12.75.16,1.15a3.94,3.94,0,0,1,1.65-.24,4,4,0,0,1,1.83,7.43,8.79,8.79,0,0,0,4.55,1.61h0a16.42,16.42,0,0,0-12.67-24Z"/><path class="cls-5" d="M400.85,172.7a17,17,0,0,1-31.05-9.62c0-.45,0-.89.05-1.33"/><path class="cls-5" d="M172.59,154.64l4.48,3-1.85,2.41"/><path class="cls-5" d="M177.31,162s-4,3.2-8.42,1.9c0,0,.72,5.74,6.28,4.66"/><path class="cls-5" d="M175.65,151.39a17,17,0,0,1-26,21.92"/><path class="cls-10" d="M175.3,150.15a17.57,17.57,0,0,0-14.65-6,19.39,19.39,0,0,0-2.32.36,20.23,20.23,0,0,0-3.34,1.08,17.84,17.84,0,0,0-5,3.33,7.5,7.5,0,0,0-1-.88,7.86,7.86,0,1,0-4.45,14.17,16.67,16.67,0,0,0,.62,3.92,17.33,17.33,0,0,0,3.39,6.6c4.71-1.88,6.86-3.64,7.83-5.35H156a4,4,0,1,1,.53-8,3.77,3.77,0,0,1,1.07.22,6.56,6.56,0,0,1,2.29-2.76c3.75-2.82,4.86-5.55,4.72-7.75A17.47,17.47,0,0,0,175.3,150.15Z"/><path class="cls-10" d="M49.91,414.94a20.1,20.1,0,0,0,13,18.79,14.11,14.11,0,0,0-7.54,12.49v7.26H89v-7.26a14.11,14.11,0,0,0-7.54-12.49,20.12,20.12,0,0,0,13-18.79V394.43H49.91Z"/><path class="cls-5" d="M57.93,364.59a127.11,127.11,0,0,1,10.73,31.89"/><path class="cls-5" d="M72.72,395.5c2.09-14.11,11.81-32.46,14.93-35.34"/><path class="cls-5" d="M64.8,394.15c-2.42-3-4.72-6.14-6.87-9.35-1.41-2.12-4.89-8.19-2.11-8.91,1.63-.42,4,2.81,5.55,4.71-4.4-6.42-8.62-13.48-8.8-21.26-.06-2.9.83-6.06,3.34-7.52,3.14-1.82,6.17,1.31,7.63,3.85C68,363.41,67,369,68,377.92c.23-.72.36-2.88,1.46-2.88,3.55,0,2.17,15.65,1.34,19"/><path class="cls-5" d="M72.86,376.07c1.2-5.86,4.33-19.35,8.29-19.17,1.72.08,1.76,2.88,1.61,3.65a16.84,16.84,0,0,1,10.14-10.8,4.1,4.1,0,0,1,3.52-.06,3.09,3.09,0,0,1,1.25,2.86,8.43,8.43,0,0,1-1,3.1,127.76,127.76,0,0,1-7.81,12.66C92,366.16,93.3,365.68,95,366a3,3,0,0,1,2.23,3A7.77,7.77,0,0,1,96,372.7,40.45,40.45,0,0,1,85.75,385c1.2.18,2.72-.88,3.46.08a1.4,1.4,0,0,1,.26.87c0,1.37-1,2.5-2,3.42a31.32,31.32,0,0,1-8.68,5.55"/><path class="cls-16" d="M422.43,120.23H460v51.43H422.43Z"/><path class="cls-5" d="M427.52,125.65H454.9v40.26H427.52Z"/><path class="cls-5" d="M445.46,141.5a6.93,6.93,0,1,1-6.93-6.94A6.94,6.94,0,0,1,445.46,141.5Z"/><path class="cls-5" d="M441.55,156.82a5.28,5.28,0,0,1,10.55,0"/><path class="cls-5" d="M231.45,280.79c28.13-13.58,50.73-29.31,43.23-57.24-11.5-42.83-82.18-35.5-82.18-35.5"/><path class="cls-5" d="M198.45,214.5S238,209.28,248,224.65c6.9,10.66,3,21.54-12.5,30.46-6.69,3.86-17.47,7.1-24.21,11.06"/><path class="cls-5" d="M224.1,279.84a26.84,26.84,0,0,0-3.44,10,2.26,2.26,0,0,0,.35,1.52c.54.59,1.53.22,2.16-.27"/><path class="cls-5" d="M215.45,267.13a47.46,47.46,0,0,0-5.41,5.93,16.11,16.11,0,0,0-3.14,7.3c-.07.54-.06,1.19.39,1.49a1.16,1.16,0,0,0,.84.14,4.39,4.39,0,0,0,2.43-1.92,91.3,91.3,0,0,1,5.95-6.93c-2.08,3.23-4.18,6.52-5.28,10.2a3.72,3.72,0,0,0-.21,1.47,1.41,1.41,0,0,0,.83,1.15,1.79,1.79,0,0,0,1.33-.21,11.2,11.2,0,0,0,4.36-4.43c1.11-1.78,2.41-4.07,3.22-5.17-1.95,2.81-4.61,7.23-5.3,11.33-.21,1.31,0,2.41.76,2.83.88.51,1.91-.57,2.21-.92,2.25-2.64,4-6.87,5.6-9.43"/><path class="cls-6" d="M139.65,100.49S84.34,115.1,87.74,158c3.34,42,58.1,48.3,60.28,48.53"/><path class="cls-7" d="M139.65,100.49S84.34,115.1,87.74,158c3.34,42,58.1,48.3,60.28,48.53"/><path class="cls-11" d="M223.76,79.58l-1.24-4.22a3.06,3.06,0,0,0-2.44-2.14L182.16,67.1a6.21,6.21,0,0,0-3.61.49L156.05,79.3a7,7,0,0,0-8.75-4.14l-5.93,2A7,7,0,0,0,137,86l10.33,30.34a7,7,0,0,0,8.84,4.35l5.92-2a7,7,0,0,0,4.72-6.72l24.15-2a6.07,6.07,0,0,0,3.47-1.53l28.43-25.7A3,3,0,0,0,223.76,79.58Z"/><path class="cls-17" d="M223.21,77.73l-29.72,8.78"/><path class="cls-17" d="M183.85,89.36a5,5,0,1,1,6.25,3.4A5,5,0,0,1,183.85,89.36Z"/><path class="cls-8" d="M134.81,89.28,141,112.94l3.39,0-6.94-25.31Z"/><path class="cls-17" d="M133.74,99.22c3.5-1.73,8.74-3.2,12.72-5.4s2.6-4.18-.9-3.74a62.27,62.27,0,0,0-13.8,3.83"/><path class="cls-17" d="M135.58,104.53c1.16-.72,17-5.34,15.29-8.11S136,98.78,133.82,99.29"/><path class="cls-17" d="M137.66,109.05c10.79-4.31,15.48-5.78,14.52-7.71s-10.51,1.42-16.45,3.18"/><path class="cls-16" d="M204,244.36h0a15,15,0,0,0-15.63-13.71,14.93,14.93,0,0,0,8.42-14.92l-1.91-19.83a15,15,0,0,0-16.31-13.44l-28.1,2.72A14.94,14.94,0,0,0,137,201.49l1.91,19.83a15,15,0,0,0,10,12.68,14.94,14.94,0,0,0,4.46,29.48l37-3A15,15,0,0,0,204,244.36Z"/></g></g></svg>