<svg xmlns="http://www.w3.org/2000/svg" viewBox="0 0 114 24"><defs><style>.cls-1{fill:#fff;fill-rule:evenodd;}</style></defs><g id="Layer_2" data-name="Layer 2"><g id="Layer_1-2" data-name="Layer 1"><path class="cls-1" d="M7.79,10.19a5.1,5.1,0,1,1,5.1-5.1A5.11,5.11,0,0,1,7.79,10.19Zm0-7.28A2.19,2.19,0,1,0,10,5.09,2.19,2.19,0,0,0,7.79,2.91ZM12.38,24l-4-7.36A10.77,10.77,0,0,1,6.8,19.23,11.09,11.09,0,0,1,.66,23L0,20.19a8.23,8.23,0,0,0,4.49-2.78,7.84,7.84,0,0,0,1.79-5l2.8-.68L15,22.64Zm43.31-3.31a4.22,4.22,0,0,1-1.8,1.58,5.19,5.19,0,0,1-2.35.58,6.85,6.85,0,0,1-2.79-.56,6.68,6.68,0,0,1-2.18-1.54,7.08,7.08,0,0,1-1.41-2.25,7.54,7.54,0,0,1,0-5.4,7.42,7.42,0,0,1,1.41-2.26A6.4,6.4,0,0,1,48.75,9.3a6.69,6.69,0,0,1,2.79-.56,5.31,5.31,0,0,1,2.35.57,4.37,4.37,0,0,1,1.8,1.59V2.84h3.14V22.51H55.69Zm-4-.64a3.73,3.73,0,0,0,1.62-.34,4,4,0,0,0,1.26-.92,4.5,4.5,0,0,0,.81-1.36,4.75,4.75,0,0,0,.28-1.64,5,5,0,0,0-.28-1.65,4.38,4.38,0,0,0-.81-1.35,4,4,0,0,0-1.26-.93,4,4,0,0,0-3.24,0,3.92,3.92,0,0,0-1.23.93,4,4,0,0,0-.8,1.35,5.15,5.15,0,0,0,0,3.29,4,4,0,0,0,.8,1.36,3.89,3.89,0,0,0,1.23.92A3.7,3.7,0,0,0,51.72,20.05Zm-18.37-11H30.2V22.51h3.15V15.57a5,5,0,0,1,.79-2.89,2.74,2.74,0,0,1,2.44-1.17,2.8,2.8,0,0,1,1.39.31,2.37,2.37,0,0,1,.9.85A4,4,0,0,1,39.34,14a8.18,8.18,0,0,1,.14,1.61v7h3.15v-8a11.3,11.3,0,0,0-.19-2.3,4.68,4.68,0,0,0-.68-1.68,4,4,0,0,0-1.57-1.33,5.59,5.59,0,0,0-2.46-.48,5.71,5.71,0,0,0-2.62.56A4.09,4.09,0,0,0,33.35,11Zm-9.06,0h3.14V22.51H24.29Zm37.33,0h3.15V22.51H61.62ZM76.82,14A2.91,2.91,0,0,0,76,12.21a3.28,3.28,0,0,0-2.32-.68,3.38,3.38,0,0,0-1.58.35,3.28,3.28,0,0,0-1.12.94,3.74,3.74,0,0,0-.68,1.35,6.11,6.11,0,0,0-.22,1.63,6.19,6.19,0,0,0,.22,1.64A3.7,3.7,0,0,0,71,18.8a3.26,3.26,0,0,0,1.17.92,3.84,3.84,0,0,0,1.73.35,3,3,0,0,0,2-.58,3.43,3.43,0,0,0,1-1.58H80a6.69,6.69,0,0,1-.63,1.94,4.89,4.89,0,0,1-1.25,1.58,5.55,5.55,0,0,1-1.9,1.05,8.06,8.06,0,0,1-2.58.38,6.75,6.75,0,0,1-2.89-.59,6.16,6.16,0,0,1-2.1-1.57,6.61,6.61,0,0,1-1.29-2.25,8.41,8.41,0,0,1-.43-2.65,8.1,8.1,0,0,1,.43-2.63,6.7,6.7,0,0,1,1.29-2.27,6.26,6.26,0,0,1,2.08-1.56,6.7,6.7,0,0,1,2.88-.6,7.8,7.8,0,0,1,2.81.46,6,6,0,0,1,1.92,1.19,4.79,4.79,0,0,1,1.16,1.68A6.15,6.15,0,0,1,80,14Zm5.91-4.9h3.14V22.51H82.73Zm27.62,5.84,1.36.55a5.24,5.24,0,0,1,1.17.72,3.08,3.08,0,0,1,.82,1,3.42,3.42,0,0,1,.3,1.53,3.75,3.75,0,0,1-.42,1.81,3.54,3.54,0,0,1-1.15,1.28,5.16,5.16,0,0,1-1.72.75,8.23,8.23,0,0,1-2.08.25,6.8,6.8,0,0,1-2.08-.31,5.32,5.32,0,0,1-1.74-.94,4.45,4.45,0,0,1-1.21-1.53,4.66,4.66,0,0,1-.45-2.09h3.06a2.14,2.14,0,0,0,.73,1.86,3.06,3.06,0,0,0,1.86.54,3.24,3.24,0,0,0,1.56-.35,1.26,1.26,0,0,0,.63-1.21,1.13,1.13,0,0,0-.27-.75,2.51,2.51,0,0,0-.78-.53,11.61,11.61,0,0,0-1.3-.5c-.51-.17-1.13-.39-1.84-.66a11.72,11.72,0,0,1-1.28-.56,4.39,4.39,0,0,1-1-.71,2.65,2.65,0,0,1-.66-1,4,4,0,0,1-.24-1.47A3.37,3.37,0,0,1,104,11a3.84,3.84,0,0,1,1.09-1.22A4.92,4.92,0,0,1,106.7,9a7.64,7.64,0,0,1,1.94-.25,5.74,5.74,0,0,1,2,.35,5.26,5.26,0,0,1,1.63.95,4.81,4.81,0,0,1,1.09,1.44,4.12,4.12,0,0,1,.41,1.82h-3.06a2.18,2.18,0,0,0-.5-1.52,2.16,2.16,0,0,0-1.66-.56,2.44,2.44,0,0,0-1.36.37,1.23,1.23,0,0,0-.56,1.1,1,1,0,0,0,.23.7,1.91,1.91,0,0,0,.69.49c.3.14.69.3,1.15.46s1,.35,1.61.58h0ZM28.1,5.09a2.25,2.25,0,1,1-2.25-2.25A2.24,2.24,0,0,1,28.1,5.09ZM63.2,7.34A2.25,2.25,0,1,0,61,5.09,2.25,2.25,0,0,0,63.2,7.34ZM86.56,5.09a2.25,2.25,0,1,1-2.25-2.25A2.25,2.25,0,0,1,86.56,5.09Zm11.36,11.1c0,2.62-1.29,3.59-3.09,3.59s-3.09-1-3.09-3.59V9.07H88.63v7.44c0,4.23,2.66,6.33,6.19,6.33s6.2-2.1,6.2-6.33V9.07H97.9v7.12Z"/></g></g></svg>